<?xml version="1.0" encoding="utf-8"?>
<!-- Generator: Adobe Illustrator 24.1.2, SVG Export Plug-In . SVG Version: 6.00 Build 0)  -->
<svg version="1.1" id="Layer_1" xmlns="http://www.w3.org/2000/svg" xmlns:xlink="http://www.w3.org/1999/xlink" x="0px" y="0px"
	 viewBox="0 0 256 256" style="enable-background:new 0 0 256 256;" xml:space="preserve">
<path d="M234.5,138.7v26.6c0,2.9-2.4,5.3-5.3,5.3l0,0h-16c0,17.6-14.3,31.9-31.9,31.9s-31.9-14.3-31.9-31.9h-42.6
	c0,17.6-14.3,31.9-31.9,31.9s-31.9-14.3-31.9-31.9h-16c-2.9,0-5.3-2.4-5.3-5.3l0,0V128c0-9.7,6.6-18.1,16-20.5l16-40.6
	c3.2-8.1,11.1-13.4,19.8-13.4h71.2c6.4,0.4,12.4,3.2,16.6,8l36.1,45.3h5.3C220.2,106.7,234.5,121,234.5,138.7
	C234.5,138.7,234.5,138.7,234.5,138.7z M90.7,170.6c0-8.8-7.2-16-16-16s-16,7.2-16,16c0,8.8,7.2,16,16,16S90.7,179.4,90.7,170.6z
	 M98.7,74.8H73.2l-12.8,33.9h38.3V74.8z M169.9,108.6l-25.6-33.9h-29.7v33.9H169.9z M197.3,170.6c0-8.8-7.2-16-16-16
	c-8.8,0-16,7.2-16,16c0,8.8,7.2,16,16,16c8.8-0.1,15.9-7.2,15.9-16H197.3z"/>
</svg>
